<svg width="65" height="99" viewBox="0 0 65 99" fill="none" xmlns="http://www.w3.org/2000/svg">
<path d="M14.2999 19.7376C10.7748 20.3252 12.2436 25.5149 12.1457 25.2211C16.0624 41.8184 30.8328 39.5112 35.0923 35.7902C39.3517 32.0693 35.1711 27.9674 34.9752 28.0654C33.7512 21.0641 26.6224 20.9731 26.3286 20.9731C20.2576 14.6574 14.3488 19.7376 14.2999 19.7376Z" fill="#FF1F39"/>
<path d="M16.4694 24.1043C3.09436 29.4103 7.32638 86.0258 6.73887 85.6341C15.2578 87.5925 19.1024 86.3626 25.9161 82.3701C36.077 76.4804 41.7447 79.2692 50.0189 76.8212C62.2384 73.2061 65.1474 67.3309 64.9944 66.4114C57.2685 59.7347 29.8445 18.7982 16.4694 24.1043Z" fill="#3B2B5B"/>
<path d="M15.9713 20.8882C17.4537 20.8882 18.6572 22.1003 18.6572 23.5933C18.6572 25.0862 17.4537 26.2984 15.9713 26.2984C14.4889 26.2984 13.2853 25.0862 13.2853 23.5933C13.2853 22.1003 14.4889 20.8882 15.9713 20.8882Z" fill="#F991A1"/>
<path d="M17.1395 25.319L15.4995 25.5392L15.7931 28.6236C15.7931 28.6236 16.5033 29.1132 17.6292 28.5257C17.6537 28.5993 17.1395 25.319 17.1395 25.319Z" fill="#F991A1"/>
<path d="M10.848 0.0312517C8.27748 -0.213546 9.86886 1.0594 9.99145 1.08408C10.4568 1.35355 10.1137 2.01431 10.1873 1.96535C10.1137 3.11609 11.0686 3.06674 11.0686 3.06674C11.0686 3.06674 11.7536 2.7487 11.7783 2.65078C11.9252 0.667725 10.897 0.0312517 10.848 0.0312517Z" fill="#FF97A6"/>
<path d="M1.74159 2.13648C1.81522 2.18544 -0.0699131 3.50735 2.47598 5.53936C2.52494 5.56404 3.50413 5.46572 3.50413 5.46572C3.50413 5.46572 3.06389 4.31537 2.74545 2.91983C2.86805 2.94451 2.96557 1.20625 1.74159 2.13648Z" fill="#FF97A6"/>
<path d="M15.4013 20.3984C14.6669 20.5452 16.6499 24.9759 19.6854 25.4412C19.6365 25.4165 21.081 22.8953 19.8323 21.7203C19.6608 21.6956 16.1357 20.2515 15.4013 20.3984Z" fill="#FF1F39"/>
<path d="M10.3342 3.04245C9.31777 5.03138 20.2483 27.8892 20.2483 27.8892L17.3342 28.5699L15.865 28.4293L13.3697 27.6444C13.3697 27.6444 6.02574 6.86129 5.73198 6.76337C4.99759 4.56019 2.4517 5.02511 1.71731 5.29458C-2.22413 7.47348 1.74159 15.625 2.54962 17.0449C5.7077 22.4061 10.2363 32.1244 10.6279 31.9285C10.7258 38.1953 14.6426 45.1476 14.7405 45.0497C24.9241 45.833 27.0783 40.6433 26.4908 40.9371C27.3721 39.2725 25.7074 27.9139 25.4137 28.1097C24.6303 24.1929 19.5386 9.11342 19.7344 9.30926C15.0343 -1.95142 10.8974 1.94066 10.3342 3.04245Z" fill="#D3E7F2"/>
<path d="M54.7894 94.7682C54.863 94.8661 53.0515 94.8414 53.0515 94.8414C53.0515 94.8414 52.464 95.8206 52.6109 96.4081C52.5372 96.3835 54.7404 98.5138 56.8214 97.9016C56.8461 97.8769 57.5068 97.1919 54.7894 94.7682Z" fill="#3B2B5B"/>
<path d="M53.7612 93.5932C53.7365 93.6179 53.1247 93.9602 53.1247 93.9602L53.0515 95.38C53.0515 95.38 54.814 96.6776 55.8912 96.5797C56.038 96.5308 55.3526 95.3068 53.7612 93.5932Z" fill="#FF97A6"/>
<path d="M46.0013 92.8099C46.0013 92.8099 45.0954 94.8415 44.9975 94.8662C44.2631 95.8701 44.8506 98.3423 44.8016 98.3423C46.7847 96.6288 47.3965 93.4707 47.3965 93.4217C47.3965 92.7606 46.0013 92.8099 46.0013 92.8099Z" fill="#3B2B5B"/>
<path d="M44.9732 92.6873L44.7527 93.1769C44.7527 93.1769 44.8263 96.3592 44.8263 96.3103C46.393 95.6491 46.3441 92.9567 46.3441 92.9567L44.9732 92.6873Z" fill="#FF97A6"/>
<path d="M26.7356 41.084C21.35 44.9028 14.5936 44.6333 14.5936 44.6333C14.5936 44.6333 14.6426 48.1341 14.6426 47.7425C13.0759 59.1011 18.7552 75.4046 18.8531 75.5025C19.6365 78.0484 21.0073 78.8317 21.0073 78.8317L44.0183 93.9112L45.1933 92.8341L26.197 72.9566L26.0012 59.2479L52.7331 93.9112L54.006 93.8133C54.006 93.8133 37.066 55.7229 36.8702 55.4291C34.0306 46.0289 26.9314 41.035 26.7356 41.084Z" fill="#0091FD"/>
</svg>
