<svg width="125" height="119" viewBox="0 0 125 119" fill="none" xmlns="http://www.w3.org/2000/svg">
<path d="M65.8827 38.9113C65.8827 38.9113 130.867 69.7274 123.989 79.5177C123.829 79.7425 113.896 79.9178 110.325 81.4325C106.753 82.9472 108.41 93.8619 103.951 95.68C96.1946 98.8428 90.1289 93.6609 90.1289 93.6609L46.9159 42.0398L65.8827 38.9113Z" fill="#868FE1"/>
<path d="M34.6545 9.8544C36.67 7.27942 39.303 5.80853 42.5521 5.44378C45.7858 5.07576 48.6802 5.90786 51.2381 7.93716C53.7978 9.9494 55.259 12.5809 55.6255 15.8285C56.0089 19.0485 55.1876 21.9444 53.1583 24.5179C51.1428 27.0758 48.5204 28.5467 45.2836 28.9315C42.0528 29.2825 39.1573 28.4598 36.596 26.4628C35.9172 25.9066 35.3198 25.3261 34.8098 24.7213C34.018 23.8116 33.4155 22.8131 32.999 21.7293C32.59 20.7421 32.3287 19.6804 32.2102 18.5453C31.8116 15.3085 32.6252 12.4123 34.6545 9.8544Z" fill="#868FE1"/>
<path d="M1.49053 9.24705C0.676437 8.38709 0.195749 7.34722 0.0513956 6.12623C-0.146759 4.62272 0.228089 3.27149 1.17565 2.07344C2.11851 0.890974 3.34243 0.218012 4.84301 0.052193C6.34358 -0.147433 7.68569 0.225652 8.86669 1.17028C9.06338 1.33609 9.25213 1.50044 9.43029 1.66625L39.4762 33.3295C43.2588 31.7983 46.3243 31.1224 48.6711 31.2976L48.714 31.3744L66.5427 32.6644C69.0062 33.1619 70.7754 34.5363 71.8474 36.7925L85.703 57.3934C86.1913 58.0752 86.4986 58.8801 86.6215 59.8048C86.7873 61.3036 86.408 62.646 85.4819 63.8299C84.5667 65.0309 83.3566 65.7203 81.856 65.9032C80.3263 66.0661 78.9675 65.6912 77.7832 64.7789C77.3102 64.4103 76.9201 63.9895 76.6052 63.5197L63.0183 43.4334L55.8032 42.9156L68.8203 64.6117C70.6235 67.9459 71.9244 71.0297 72.7305 73.86C74.429 78.7545 76.6666 81.823 79.4326 83.0654C83.8987 83.9486 89.9772 80.9827 97.6744 74.1702L97.6976 74.1964C97.8035 74.1087 97.9172 74.0229 98.0401 73.9338C99.2549 73.0248 100.616 72.682 102.125 72.9063C103.609 73.0983 104.807 73.7986 105.716 75.0134C106.628 76.2235 106.969 77.5859 106.743 79.0985C106.535 80.4147 105.948 81.5234 104.982 82.4266C93.2238 92.8301 83.1017 96.3822 74.6133 93.0756C69.1582 89.6293 64.7752 85.2572 61.4609 79.9526C56.3545 90.7644 59.0066 100.44 69.4254 108.968C69.6788 109.203 69.9231 109.461 70.1566 109.749C70.8769 110.616 71.2835 111.59 71.3834 112.663C71.4187 113.008 71.4205 113.363 71.3928 113.727C71.2456 115.248 70.5911 116.49 69.4192 117.453C68.2688 118.402 66.9358 118.806 65.417 118.66C64.2866 118.553 63.3052 118.158 62.4714 117.476L62.4453 117.496C60.5378 115.925 58.8088 114.299 57.2606 112.622C56.9566 112.291 56.6602 111.955 56.3653 111.62C46.673 100.446 44.847 87.04 50.8811 71.4075L34.9642 48.2603L30.2861 39.6431L1.48876 9.27145L1.49053 9.24705Z" fill="#868FE1"/>
</svg>
