<svg width="51" height="68" viewBox="0 0 51 68" fill="none" xmlns="http://www.w3.org/2000/svg">
<path d="M20.253 50.0864H30.7474V61.2215H20.253V50.0864Z" fill="#FCCC9B"/>
<path d="M20.2529 51.3976C20.2529 51.3976 24.6683 54.06 30.7469 53.4439V50.0848H20.2529V51.3976Z" fill="#FBBB85"/>
<path d="M10.2414 34.6575C10.2414 37.7127 7.94892 40.1921 5.12002 40.1921C2.29248 40.1921 0 37.7127 0 34.6575C0 31.6002 2.29248 29.1212 5.12002 29.1212C7.94892 29.1212 10.2414 31.6002 10.2414 34.6575Z" fill="#FBBB85"/>
<path d="M51 34.7034C51 37.7586 48.708 40.2381 45.8804 40.2381C43.0528 40.2381 40.7603 37.7586 40.7603 34.7034C40.7603 31.6461 43.0528 29.1672 45.8804 29.1672C48.708 29.1672 51 31.6461 51 34.7034Z" fill="#FBBB85"/>
<path d="M45.8595 22.2454C45.8595 14.0933 39.5626 8.12744 25.5003 8.12744C11.4375 8.12744 5.14108 14.0933 5.14108 22.2454C5.14108 30.3992 3.6728 51.875 25.5003 51.875C47.329 51.875 45.8595 30.3992 45.8595 22.2454Z" fill="#FCCC9B"/>
<path d="M17.7878 26.4826C17.7878 27.746 16.8011 28.77 15.5845 28.77C14.3676 28.77 13.379 27.746 13.379 26.4826C13.379 25.2193 14.3676 24.1952 15.5845 24.1952C16.8011 24.1952 17.7878 25.2193 17.7878 26.4826Z" fill="#3A2418"/>
<path d="M15.2829 25.4733C15.2829 25.8171 14.9866 26.0978 14.6242 26.0978C14.2596 26.0978 13.965 25.8171 13.965 25.4733C13.965 25.1283 14.2596 24.8492 14.6242 24.8492C14.9866 24.8492 15.2829 25.1283 15.2829 25.4733Z" fill="white"/>
<path d="M12.0582 20.8144C13.1002 21.3083 14.7737 19.138 18.604 21.0259C19.3029 21.3709 19.7197 18.081 15.614 18.081C12.0582 18.081 11.4285 20.5172 12.0582 20.8144Z" fill="#51362A"/>
<path d="M37.8926 26.4826C37.8926 27.746 36.9059 28.77 35.6894 28.77C34.4724 28.77 33.4857 27.746 33.4857 26.4826C33.4857 25.2193 34.4724 24.1952 35.6894 24.1952C36.9059 24.1952 37.8926 25.2193 37.8926 26.4826Z" fill="#3A2418"/>
<path d="M35.3878 25.4733C35.3878 25.8171 35.0932 26.0978 34.7286 26.0978C34.3645 26.0978 34.0699 25.8171 34.0699 25.4733C34.0699 25.1283 34.3645 24.8492 34.7286 24.8492C35.0932 24.8492 35.3878 25.1283 35.3878 25.4733Z" fill="white"/>
<path d="M38.9423 20.8144C37.8998 21.3083 36.2263 19.138 32.3964 21.0259C31.6989 21.3709 31.2825 18.081 35.3877 18.081C38.9423 18.081 39.5715 20.5172 38.9423 20.8144Z" fill="#51362A"/>
<path d="M25.5002 34.5261C23.3229 34.5261 22.0117 32.9849 22.0117 33.7316C22.0117 34.4762 22.6409 35.8934 25.5002 35.8934C28.3608 35.8934 28.9901 34.4762 28.9901 33.7316C28.9901 32.9849 27.6776 34.5261 25.5002 34.5261Z" fill="#FBBB85"/>
<path d="M25.5002 41.3832C24.7469 41.3832 24.294 40.85 24.294 41.1076C24.294 41.365 24.5117 41.8559 25.5002 41.8559C26.49 41.8559 26.7065 41.365 26.7065 41.1076C26.7065 40.85 26.2531 41.3832 25.5002 41.3832Z" fill="#FBBB85"/>
<path d="M25.5003 39.4823C22.0484 39.4823 19.9687 38.1513 19.9687 38.4883C19.9687 38.8265 20.9675 40.1545 25.5003 40.1545C30.0343 40.1545 31.0313 38.8265 31.0313 38.4883C31.0313 38.1513 28.9517 39.4823 25.5003 39.4823Z" fill="#F7935E"/>
<path d="M25.5002 54.5588V67.088H0C0 62.016 13.4318 54.5588 25.5002 54.5588Z" fill="#F7931E"/>
<path d="M25.5002 54.5588V67.088H51C51 62.016 37.5686 54.5588 25.5002 54.5588Z" fill="#F7931E"/>
<path d="M25.5002 54.5588C22.9342 54.5588 20.3052 54.8992 17.7566 55.4806C17.774 55.5001 20.5841 58.9341 25.5002 58.9341C30.0534 58.9341 33.0814 55.9939 33.5188 55.5415C30.8849 54.9221 28.1604 54.5588 25.5002 54.5588Z" fill="#F36C20"/>
<path d="M20.327 55.046C20.327 55.046 21.8626 56.8497 25.5742 56.8497C29.2871 56.8497 30.8209 55.046 30.8209 55.046C30.8209 55.046 25.377 53.1683 20.327 55.046Z" fill="#FCCC9B"/>
<path d="M42.3124 6.43954C42.3124 6.43954 34.7575 -2.65716 19.0524 0.773058C3.34775 4.20332 2.171 13.1517 2.64358 21.8573C3.11572 30.5646 4.37645 35.6712 5.8652 35.0404C7.35346 34.4095 6.57966 28.6619 6.73675 27.3356C6.89335 26.0092 8.31069 20.0125 17.8617 20.9075C27.4132 21.801 35.4616 18.5209 35.4616 18.5209C35.4616 18.5209 38.7025 22.4005 40.8343 23.1439C45.0948 24.6288 43.6966 34.5334 45.3665 34.5334C47.0347 34.5334 55.2211 11.6604 42.3124 6.43954Z" fill="#51362A"/>
</svg>
